PathFileType	4	(X/Y/Z)	C:/Users/opensim2020/Desktop/walking_exp_matlab/subject03_walking09_straight_03.trc	
DataRate	CameraRate	NumFrames	NumMarkers	Units	OrigDataRate	OrigDataStartFrame	OrigNumFrames	
100.00	100.00	4	47	mm	100.00	2843	383	
Frame#	Time	LFHD			RFHD			LBHD			RBHD			C7			T10			CLAV			STRN			RBAK			LSHO			LUPA			LELB			LFRM			LWRA			LWRB			LFIN			RSHO			RUPA			RELB			RFRM			RWRA			RWRB			RFIN			LASI			RASI			LPSI			RPSI			LTHI			LKNE			LTIB			LANK			LHEE			LTOE			RTHI			RKNE			RTIB			RANK			RHEE			RTOE			*39			*40			*41			*42			*43			*44			*45			*46			
		X1	Y1	Z1	X2	Y2	Z2	X3	Y3	Z3	X4	Y4	Z4	X5	Y5	Z5	X6	Y6	Z6	X7	Y7	Z7	X8	Y8	Z8	X9	Y9	Z9	X10	Y10	Z10	X11	Y11	Z11	X12	Y12	Z12	X13	Y13	Z13	X14	Y14	Z14	X15	Y15	Z15	X16	Y16	Z16	X17	Y17	Z17	X18	Y18	Z18	X19	Y19	Z19	X20	Y20	Z20	X21	Y21	Z21	X22	Y22	Z22	X23	Y23	Z23	X24	Y24	Z24	X25	Y25	Z25	X26	Y26	Z26	X27	Y27	Z27	X28	Y28	Z28	X29	Y29	Z29	X30	Y30	Z30	X31	Y31	Z31	X32	Y32	Z32	X33	Y33	Z33	X34	Y34	Z34	X35	Y35	Z35	X36	Y36	Z36	X37	Y37	Z37	X38	Y38	Z38	X39	Y39	Z39	X40	Y40	Z40	X41	Y41	Z41	X42	Y42	Z42	X43	Y43	Z43	X44	Y44	Z44	X45	Y45	Z45	X46	Y46	Z46	X47	Y47	Z47	

48	0.470	-1105.98364	-699.52020	1619.56067	-973.89740	-716.02362	1629.56274	-1115.14185	-822.85034	1565.93506	-984.62329	-835.22955	1575.37354	-1049.18213	-853.12897	1416.60205	-1039.24548	-896.71918	1106.66052	-1040.12512	-733.33026	1337.00525	-1035.54968	-695.11047	1170.43506	-944.13898	-912.63507	1249.93323	-1199.51318	-769.49072	1368.89307	-1260.73804	-796.37793	1168.65552	-1266.60754	-803.66888	1045.21997	-1259.88684	-793.32031	915.13318	-1223.88708	-792.46802	795.64539	-1276.65686	-811.12982	802.67413	-1261.71387	-811.28436	718.09753	-884.51385	-778.37500	1368.19067	-814.69312	-750.20581	1146.91382	-806.83472	-718.74860	1037.58899	-811.10114	-683.72516	905.15863	-853.78809	-646.74750	815.04987	-805.00885	-668.65173	805.89825	-822.20874	-640.25946	737.52148	-1143.61707	-726.25378	939.04620	-907.21350	-745.27020	932.90344	-1107.54749	-891.20410	968.43317	-957.54382	-899.62793	972.58557	-1187.47607	-758.61884	639.50696	-1144.48132	-725.59387	465.21948	-1148.50659	-743.96576	272.56470	-1109.41211	-722.57880	63.51067	-1074.03918	-760.24860	28.36413	-1081.21057	-568.93964	30.93192	-869.59216	-827.64417	637.95428	-894.29950	-833.42883	457.33853	-892.26544	-971.02295	318.10947	-936.32526	-1113.64880	156.32768	-989.94275	-1164.28345	160.18187	-958.15161	-1039.78870	32.44857																								 
49	0.480	-1106.92102	-692.18890	1620.10278	-974.72418	-708.88409	1630.20813	-1116.07764	-815.59003	1566.51331	-985.57703	-828.03101	1575.98523	-1050.15247	-845.78687	1417.04651	-1040.59644	-888.84259	1107.01758	-1040.80298	-725.86548	1337.67468	-1036.15479	-687.25482	1171.28186	-945.20959	-904.92834	1250.19568	-1200.17944	-761.65509	1369.74927	-1262.00696	-787.45972	1169.59106	-1267.83154	-794.19110	1046.17969	-1261.02039	-783.27393	916.07697	-1224.99731	-782.33966	796.46472	-1278.10010	-800.45300	803.61450	-1263.22400	-800.77875	718.91833	-885.46722	-771.29242	1369.03040	-815.41229	-743.87689	1147.75134	-807.18726	-713.57385	1038.22974	-810.98956	-679.40356	905.56024	-853.19348	-642.50354	815.09387	-804.67755	-665.09442	806.18433	-821.76215	-637.28894	737.35101	-1144.50720	-718.37122	939.30029	-908.23871	-737.60455	933.73413	-1108.70691	-883.25085	969.16656	-958.76074	-891.82465	973.17694	-1188.25989	-753.09113	639.90570	-1145.12610	-721.77808	465.14911	-1148.98840	-741.59155	272.70865	-1108.86597	-722.26172	63.28747	-1073.96094	-760.18469	28.36071	-1081.04810	-568.72784	30.73578	-869.62988	-815.79395	637.68634	-893.57410	-818.05011	456.84662	-891.85767	-957.34509	319.89346	-935.90149	-1102.75513	160.86092	-990.04425	-1152.69189	167.63454	-958.42615	-1037.31372	33.03294																								 
50	0.490	-1107.64453	-685.04852	1620.49500	-975.54492	-701.77344	1630.62512	-1116.93713	-808.41211	1566.81653	-986.45074	-820.93207	1576.34766	-1051.14417	-838.59033	1417.36084	-1041.90967	-881.12250	1107.25574	-1041.43799	-718.41425	1338.15894	-1036.91174	-679.54285	1171.81787	-946.34082	-897.42310	1250.25464	-1200.77002	-753.80005	1370.36011	-1263.02234	-778.61401	1170.35327	-1269.13489	-784.67413	1046.84302	-1262.35193	-773.05957	916.86969	-1227.27246	-770.89191	797.99097	-1279.58215	-789.53021	804.29089	-1264.72205	-789.72998	719.51917	-886.26184	-764.36157	1369.69019	-815.96832	-737.74792	1148.35583	-807.45844	-708.38391	1038.64368	-810.81055	-675.01050	905.76135	-852.46814	-638.28662	814.94287	-804.32184	-661.49097	806.28473	-821.10596	-634.21326	737.01196	-1145.54456	-710.45813	939.56201	-909.26215	-729.98859	934.33154	-1109.79993	-875.36694	969.75763	-959.91620	-884.27087	973.42029	-1189.22144	-747.15314	640.23871	-1145.75049	-717.78998	465.12350	-1149.44092	-739.16516	272.77914	-1108.96338	-721.91766	63.52335	-1073.91565	-760.17993	28.36036	-1080.91968	-568.45386	30.52456	-869.75714	-803.89417	637.12604	-893.04919	-802.60077	456.32385	-891.52545	-943.10120	321.29782	-935.34869	-1091.16565	165.08446	-989.60199	-1140.93713	175.12883	-958.22430	-1033.59155	34.71829																								 
51	0.500	-1108.34045	-677.98663	1620.79297	-976.23914	-694.81464	1631.00989	-1117.72070	-801.24127	1566.95361	-987.24866	-813.90283	1576.51416	-1052.00537	-831.36884	1417.42249	-1043.08740	-873.46503	1107.33557	-1042.07275	-711.06256	1338.46179	-1037.42712	-672.00006	1172.13159	-947.52094	-890.20099	1250.21790	-1201.35266	-746.02368	1370.70947	-1264.26050	-769.76587	1170.71790	-1270.51575	-775.00629	1047.29932	-1263.68640	-762.66852	917.35779	-1228.49121	-760.23407	798.37927	-1281.01550	-778.27509	804.62640	-1266.26624	-778.24719	719.89380	-886.88812	-757.53882	1370.16821	-816.41656	-731.84131	1148.69373	-807.61188	-703.29034	1038.83948	-810.53162	-670.65942	905.74133	-851.66840	-634.00537	814.61346	-803.88983	-657.74152	806.14008	-820.30939	-631.15320	736.59149	-1146.45605	-702.83612	939.63245	-910.29480	-722.19763	934.58038	-1110.84045	-867.69788	970.07825	-960.99036	-876.89319	973.26489	-1190.35291	-740.97900	640.56976	-1146.51367	-713.70837	465.10745	-1149.88525	-736.78339	272.85739	-1108.86475	-721.77307	63.50017	-1073.90662	-760.13458	28.33985	-1080.79456	-568.25623	30.37781	-869.98859	-792.24158	636.49744	-892.69824	-787.28784	455.84970	-891.10791	-928.37952	322.44336	-934.84631	-1079.78650	169.71373	-988.93890	-1129.39160	182.62451	-957.67670	-1027.79028	38.07359																								 
